<?xml version="1.0" encoding="UTF-8"?>
<svg id="Livello_1" xmlns="http://www.w3.org/2000/svg" viewBox="0 0 250 54">
  <defs>
    <style>
      .cls-1 {
        fill: #c3102e;
      }

      .cls-2 {
        fill: #00263e;
      }
    </style>
  </defs>
  <g>
    <path class="cls-2" d="M55.34,40.6c-.91,0-1.76-.23-2.54-.68-.78-.46-1.4-1.07-1.86-1.84-.46-.77-.68-1.62-.68-2.56v-.12c0-.84.68-1.52,1.52-1.52h1.17c.84,0,1.52.68,1.52,1.52h0c0,.26.1.49.29.68.2.2.42.29.68.29h17.75c.26,0,.48-.1.66-.29.18-.2.27-.42.27-.68v-5.79c0-.29-.09-.51-.27-.68-.18-.17-.4-.25-.66-.25h-17.82c-.87,0-1.74-.21-2.49-.65-.83-.48-1.48-1.11-1.95-1.91-.46-.77-.68-1.62-.68-2.56v-6.02c0-.94.23-1.79.68-2.56.46-.77,1.08-1.38,1.86-1.84.78-.46,1.63-.68,2.54-.68h17.98c.91,0,1.76.23,2.54.68.78.46,1.4,1.07,1.86,1.84.46.77.68,1.62.68,2.56v.12c0,.84-.68,1.52-1.52,1.52h-1.21c-.84,0-1.52-.68-1.52-1.52h0c0-.26-.09-.49-.27-.68-.18-.2-.4-.29-.66-.29h-17.75c-.26,0-.49.1-.68.29-.2.2-.29.42-.29.68v5.79c0,.37.16.64.48.81.16.09.34.13.52.13h17.8c.87,0,1.74.21,2.49.65.83.48,1.48,1.11,1.95,1.91.46.77.68,1.62.68,2.56v6.02c0,.94-.23,1.79-.68,2.56-.46.77-1.08,1.38-1.86,1.84-.78.46-1.63.68-2.54.68h-17.98Z"/>
    <path class="cls-2" d="M82.75,31.14v-4.22h15.64v4.22h-15.64Z"/>
    <path class="cls-2" d="M113.4,38.47v-21.8h-9.85c-1.17,0-2.11-.95-2.11-2.11h0c0-1.17.95-2.11,2.11-2.11h23.93c1.17,0,2.11.95,2.11,2.11h0c0,1.17-.95,2.11-2.11,2.11h-9.81v21.8c0,1.18-.95,2.13-2.13,2.13h0c-1.18,0-2.13-.95-2.13-2.13Z"/>
    <path class="cls-2" d="M134.47,40.6c-1.17,0-2.11-.95-2.11-2.11v-15.48c0-.94.23-1.79.7-2.54.47-.76,1.09-1.37,1.86-1.84.77-.47,1.61-.7,2.52-.7h10.56c1.17,0,2.11.95,2.11,2.11h0c0,1.17-.95,2.11-2.11,2.11h-10.44c-.26,0-.49.1-.68.29-.2.2-.29.42-.29.68v15.36c0,1.17-.95,2.11-2.11,2.11h0Z"/>
    <path class="cls-2" d="M157.93,40.6c-.94,0-1.79-.23-2.56-.7-.77-.47-1.38-1.08-1.84-1.84-.46-.76-.68-1.6-.68-2.54v-7.06c0-.72.58-1.3,1.3-1.3h16.2c.72,0,1.3-.58,1.3-1.3v-2.72c0-.26-.09-.49-.27-.68-.18-.2-.4-.29-.66-.29h-15.76c-1.17,0-2.11-.95-2.11-2.11h0c0-1.17.95-2.11,2.11-2.11h15.87c.94,0,1.79.23,2.56.68.77.46,1.38,1.07,1.84,1.86.46.78.68,1.63.68,2.54v16.29c0,.72-.58,1.3-1.3,1.3h-16.68ZM158.05,36.38h13.61v-5.28h-14.58v4.3c0,.26.1.49.29.68.2.2.42.29.68.29Z"/>
    <path class="cls-2" d="M181.74,39.9c-.76-.47-1.37-1.08-1.84-1.84-.47-.76-.7-1.6-.7-2.54v-12.51c0-.94.23-1.79.7-2.54.47-.76,1.08-1.37,1.84-1.84.76-.47,1.6-.7,2.54-.7h15.79c1.17,0,2.11.95,2.11,2.11h0c0,1.17-.95,2.11-2.11,2.11h-15.68c-.26,0-.49.1-.68.29-.2.2-.29.42-.29.68v12.28c0,.26.1.49.29.68.2.2.42.29.68.29h15.76c1.17,0,2.11.95,2.11,2.11h0c0,1.17-.95,2.11-2.11,2.11h-15.87c-.94,0-1.79-.23-2.54-.7Z"/>
    <path class="cls-2" d="M207.93,39.9c-.76-.47-1.37-1.08-1.84-1.84-.47-.76-.7-1.6-.7-2.54v-12.51c0-.94.23-1.79.7-2.54.47-.76,1.08-1.37,1.84-1.84.76-.47,1.6-.7,2.54-.7h12.9c.94,0,1.79.23,2.56.68.77.46,1.38,1.07,1.84,1.86.46.78.68,1.63.68,2.54v5.89c0,1.37-1.11,2.48-2.48,2.48h-15.04c-.73,0-1.32.59-1.32,1.32v2.7c0,.26.1.49.29.68.2.2.42.29.68.29h15.76c1.17,0,2.11.95,2.11,2.11h0c0,1.17-.95,2.11-2.11,2.11h-15.87c-.94,0-1.79-.23-2.54-.7ZM209.61,27.43h14.58v-4.3c0-.26-.09-.49-.27-.68-.18-.2-.4-.29-.66-.29h-12.67c-.26,0-.49.1-.68.29-.2.2-.29.42-.29.68v4.3Z"/>
    <path class="cls-2" d="M234.36,40.6c-1.17,0-2.11-.95-2.11-2.11v-15.48c0-.94.23-1.79.7-2.54.47-.76,1.09-1.37,1.86-1.84.77-.47,1.61-.7,2.52-.7h10.56c1.17,0,2.11.95,2.11,2.11h0c0,1.17-.95,2.11-2.11,2.11h-10.44c-.26,0-.49.1-.68.29-.2.2-.29.42-.29.68v15.36c0,1.17-.95,2.11-2.11,2.11h0Z"/>
  </g>
  <path class="cls-1" d="M.88,43.2C-.35,37.79-.07,19.97.4,13.89,1.08,5.23,7.17-.52,15.97.14c4.29.32,19.14,2.39,22.35,4.19,3.68,2.07,6.54,7.19,6.92,11.37.51,5.64.54,16.97,0,22.58-.4,4.15-3.23,9.29-6.92,11.37-3.24,1.82-18.05,3.89-22.35,4.19-1.26.09-2.55.13-3.81-.05-5.34-.73-10.1-5.41-11.28-10.59ZM34.64,45.97c3.81-1.17,6.62-5.25,7.01-9.13.39-3.85.48-18.85-.54-22.04-2.14-6.75-6.92-7.02-12.95-7.85-4.06-.56-12.56-1.94-16.05-.36-3.25,1.46-5.67,5.6-5.97,9.09-.45,5.28-.63,18.56.1,23.59.57,3.92,4.04,8.16,8.07,8.78,3.23.5,17.03-1.07,20.33-2.09Z"/>
  <g>
    <path class="cls-2" d="M17.56,29.84c1.69.33,1.95-2.54.73-2.91-2.09-.63-2.73,2.52-.73,2.91Z"/>
    <path class="cls-2" d="M17.18,25.39c1.89.58,2.44-2.42.87-2.84-1.78-.47-2.32,2.4-.87,2.84Z"/>
    <path class="cls-2" d="M20.95,29.35c1.93.68,2.63-2.23.99-2.68s-2.16,2.26-.99,2.68Z"/>
    <path class="cls-2" d="M18.65,18.67c-1.84-1.86-3.44,2.85-.56,2.37,1.06-.18,1.13-1.8.56-2.37Z"/>
    <path class="cls-2" d="M21.07,25.14c1.8.53,2.3-2.16.87-2.59-1.68-.51-2.41,2.14-.87,2.59Z"/>
    <path class="cls-2" d="M18.65,10.4c-1.49-1.49-3.26,1.41-1.4,2.25,1.67.76,2.2-1.45,1.4-2.25Z"/>
    <path class="cls-2" d="M18.65,14.54c-1.8-1.8-3.37,2.49-.79,2.39,1.29-.05,1.42-1.76.79-2.39Z"/>
    <path class="cls-2" d="M21.56,17.12c1.49.21,1.88-2.67.15-2.84-1.48-.14-1.81,2.6-.15,2.84Z"/>
    <path class="cls-2" d="M22.54,18.67c-1.58-1.59-3.42,2.43-.78,2.39,1.17-.02,1.4-1.77.78-2.39Z"/>
    <path class="cls-2" d="M20.71,10.65c-.9.9.32,3.05,1.65,2.25,1.41-.84-.3-3.6-1.65-2.25Z"/>
    <path class="cls-2" d="M25.95,12.96c.8-.8-.12-2.89-1.4-2.26-1.67.83.06,3.6,1.4,2.26Z"/>
    <path class="cls-2" d="M25.9,24.77c.84-.85.19-3.05-1.4-2.25-1.44.72.07,3.61,1.4,2.25Z"/>
    <path class="cls-2" d="M25.95,26.7c-1.24-1.26-2.65,1.63-1.27,2.33,1.59.79,2.11-1.48,1.27-2.33Z"/>
    <path class="cls-2" d="M27.77,14.78c-.83.85-.02,3.11,1.4,2.25,1.32-.79-.17-3.5-1.4-2.25Z"/>
    <path class="cls-2" d="M28.12,25.11c1.89.56,2.05-2.45.39-2.6-.99-.09-1.64,2.23-.39,2.6Z"/>
    <path class="cls-2" d="M27.77,11.13c-.79.82-.15,3.03,1.4,2.25,1.4-.7-.29-3.4-1.4-2.25Z"/>
    <path class="cls-2" d="M24.97,16.88c1.04.15,1.67-1.46.8-2.29-1.62-1.53-2.62,2.03-.8,2.29Z"/>
    <path class="cls-2" d="M31.49,25.05c1.62.41,1.78-3.41-.17-2.53-1.11.5-.88,2.26.17,2.53Z"/>
    <path class="cls-2" d="M32.51,17.09c.76-.77.14-2.88-1.15-2.26-1.64.78-.2,3.63,1.15,2.26Z"/>
    <path class="cls-2" d="M28.12,28.79c1.99.6,2.13-2.98,0-2.35-.93.28-.93,2.07,0,2.35Z"/>
    <path class="cls-2" d="M30.93,26.46c-1.37,1.59,1.66,3.42,1.88,1.01.12-1.3-1.26-1.73-1.88-1.01Z"/>
    <path class="cls-2" d="M30.93,11.62c-.76.88.06,2.81,1.4,2.01s-.22-3.38-1.4-2.01Z"/>
    <path class="cls-2" d="M17.26,38.36c1.69.33,2.09-2.47.86-2.84-2.09-.63-2.86,2.45-.86,2.84Z"/>
    <path class="cls-2" d="M17.5,42.83c1.69.33,2.09-2.47.86-2.84-2.09-.63-2.86,2.45-.86,2.84Z"/>
    <path class="cls-2" d="M20.78,42.27c1.93.68,2.76-2.16,1.12-2.6s-2.29,2.19-1.12,2.6Z"/>
    <path class="cls-2" d="M20.93,37.77c1.8.53,2.3-2.16.87-2.59-1.68-.51-2.41,2.14-.87,2.59Z"/>
    <path class="cls-2" d="M25.7,37.1c.84-.85.19-3.05-1.4-2.25-1.44.72.07,3.61,1.4,2.25Z"/>
    <path class="cls-2" d="M25.78,39.31c-1.24-1.26-2.79,1.56-1.4,2.25,1.59.79,2.24-1.4,1.4-2.25Z"/>
    <path class="cls-2" d="M27.96,32.81c1.89.56,2.05-2.45.39-2.6-.99-.09-1.64,2.23-.39,2.6Z"/>
    <path class="cls-2" d="M27.68,36.62c1.99.6,2.13-2.98,0-2.35-.93.28-.93,2.07,0,2.35Z"/>
    <path class="cls-2" d="M31.53,32.55c1.62.41,1.78-3.41-.17-2.53-1.11.5-.88,2.26.17,2.53Z"/>
    <path class="cls-2" d="M30.83,34.33c-1.37,1.59,1.66,3.42,1.88,1.01.12-1.3-1.26-1.73-1.88-1.01Z"/>
    <path class="cls-2" d="M31.38,40.58c1.62.41,1.78-3.41-.17-2.53-1.11.5-.88,2.26.17,2.53Z"/>
    <path class="cls-2" d="M27.68,41.11c1.99.6,2.13-2.98,0-2.35-.93.28-.93,2.07,0,2.35Z"/>
    <path class="cls-2" d="M13.83,30.51c1.85.36,2.15-2.78.81-3.18-2.29-.69-3,2.75-.81,3.18Z"/>
    <path class="cls-2" d="M13.42,26.02c2.07.63,2.67-2.65.95-3.11-1.94-.52-2.54,2.63-.95,3.11Z"/>
    <path class="cls-2" d="M15.03,18.68c-2.02-2.04-3.76,3.12-.61,2.6,1.16-.19,1.23-1.97.61-2.6Z"/>
    <path class="cls-2" d="M15.03,10.14c-1.63-1.63-3.57,1.54-1.53,2.46,1.83.83,2.4-1.58,1.53-2.46Z"/>
    <path class="cls-2" d="M15.03,14.42c-1.96-1.97-3.68,2.73-.86,2.61,1.41-.06,1.55-1.93.86-2.61Z"/>
    <path class="cls-2" d="M34.49,24.92c1.45.37,1.6-3.06-.15-2.27-1,.45-.79,2.03.15,2.27Z"/>
    <path class="cls-2" d="M33.95,26.54c-1.23,1.42,1.49,3.08,1.69.9.11-1.16-1.13-1.56-1.69-.9Z"/>
    <path class="cls-2" d="M34.62,32.41c1.45.37,1.6-3.06-.15-2.27-1,.45-.79,2.03.15,2.27Z"/>
    <path class="cls-2" d="M34.07,34.01c-1.23,1.42,1.49,3.08,1.69.9.11-1.16-1.13-1.56-1.69-.9Z"/>
    <path class="cls-2" d="M34.87,39.91c1.45.37,1.6-3.06-.15-2.27-1,.45-.79,2.03.15,2.27Z"/>
    <path class="cls-2" d="M13.43,43.35c1.85.36,2.15-2.78.81-3.18-2.29-.69-3,2.75-.81,3.18Z"/>
    <path class="cls-2" d="M13.02,38.8c2.07.63,2.67-2.65.95-3.11-1.94-.52-2.54,2.63-.95,3.11Z"/>
    <path class="cls-2" d="M34.6,13.99c1.46.37,1.61-3.08-.15-2.28-1,.46-.79,2.04.15,2.28Z"/>
    <path class="cls-2" d="M34.07,15.49c-1.23,1.43,1.5,3.09,1.7.91.11-1.17-1.14-1.57-1.7-.91Z"/>
  </g>
</svg>